; Drill file
; Format: 3.3 (000.000)
M48
METRIC
T01C0.6
%
G05
G90
T01
X1270Y73660
X2540Y73660
X3810Y73660
X5080Y73660
X6350Y73660
X7620Y73660
X8890Y73660
X10160Y73660
X11430Y73660
X12700Y73660
X13970Y73660
X15240Y73660
X16510Y73660
X17780Y73660
X19050Y73660
X20320Y73660
X21590Y73660
X22860Y73660
X24130Y73660
X25400Y73660
X26670Y73660
X27940Y73660
X29210Y73660
X30480Y73660
X31750Y73660
X33020Y73660
X34290Y73660
X35560Y73660
X36830Y73660
X38100Y73660
X39370Y73660
X40640Y73660
X41910Y73660
X43180Y73660
X44450Y73660
X45720Y73660
X46990Y73660
X48260Y73660
X49530Y73660
X50800Y73660
X52070Y73660
X53340Y73660
X54610Y73660
X55880Y73660
X57150Y73660
X59690Y73660
X59690Y72390
X59690Y71120
X59690Y69850
X59690Y68580
X59690Y67310
X59690Y66040
X59690Y64770
X59690Y63500
X59690Y62230
X59690Y60960
X59690Y59690
X59690Y58420
X59690Y57150
X59690Y55880
X59690Y54610
X59690Y53340
X59690Y52070
X59690Y50800
X59690Y49530
X59690Y48260
X59690Y46990
X59690Y45720
X59690Y44450
X59690Y43180
X59690Y41910
X59690Y40640
X59690Y39370
X59690Y38100
X59690Y36830
X59690Y35560
X59690Y34290
X59690Y33020
X59690Y31750
X59690Y30480
X59690Y29210
X59690Y27940
X59690Y26670
X59690Y25400
X59690Y24130
X59690Y22860
X59690Y21590
X59690Y20320
X59690Y19050
X59690Y17780
X59690Y16510
X59690Y15240
X59690Y13970
X59690Y12700
X59690Y11430
X59690Y10160
X59690Y8890
X59690Y7620
X59690Y6350
X59690Y5080
X59690Y3810
X59690Y2540
X57150Y2540
X55880Y2540
X54610Y2540
X53340Y2540
X52070Y2540
X50800Y2540
X49530Y2540
X48260Y2540
X46990Y2540
X45720Y2540
X44450Y2540
X43180Y2540
X41910Y2540
X40640Y2540
X39370Y2540
X38100Y2540
X36830Y2540
X35560Y2540
X34290Y2540
X33020Y2540
X31750Y2540
X30480Y2540
X29210Y2540
X27940Y2540
X26670Y2540
X25400Y2540
X24130Y2540
X22860Y2540
X21590Y2540
X20320Y2540
X19050Y2540
X17780Y2540
X16510Y2540
X15240Y2540
X13970Y2540
X12700Y2540
X11430Y2540
X10160Y2540
X8890Y2540
X7620Y2540
X6350Y2540
X5080Y2540
X3810Y2540
X1270Y2540
X1270Y3810
X1270Y5080
X1270Y6350
X1270Y7620
X1270Y8890
X1270Y10160
X1270Y11430
X1270Y12700
X1270Y13970
X2540Y2540
X1270Y15240
X1270Y16510
X1270Y17780
X1270Y19050
X1270Y20320
X1270Y21590
X1270Y22860
X1270Y24130
X1270Y25400
X1270Y27940
X1270Y26670
X1270Y29210
X1270Y30480
X1270Y31750
X1270Y33020
X1270Y34290
X1270Y35560
X1270Y36830
X1270Y38100
X1270Y39370
X1270Y40640
X1270Y41910
X1270Y43180
X1270Y44450
X1270Y45720
X1270Y46990
X1270Y48260
X1270Y49530
X1270Y50800
X1270Y52070
X1270Y53340
X1270Y54610
X1270Y55880
X1270Y57150
X1270Y58420
X1270Y59690
X1270Y60960
X1270Y62230
X1270Y63500
X1270Y64770
X1270Y66040
X1270Y67310
X1270Y68580
X1270Y69850
X1270Y71120
X1270Y72390
X58420Y2540
X58420Y73660
X7620Y55240
X7620Y52700
X7620Y50160
X7620Y47620
X7620Y45080
X7620Y42540
X7620Y40000
X7620Y37460
X7620Y34920
X7620Y32380
X7620Y28580
X7620Y26040
X7620Y23500
X7620Y20960
X7620Y18420
X7620Y15880
X7620Y13340
X7620Y10800
X19680Y31120
X22220Y31120
X24760Y31120
X27300Y31120
X29840Y31120
X29840Y37460
X29840Y42540
X32380Y31120
X34920Y31120
X37460Y31120
X40000Y31120
X43180Y31750
X43180Y34290
X46360Y34920
X46360Y31120
X55880Y34920
X55880Y37460
X55880Y40000
X55880Y42540
X55880Y45080
X55880Y32380
X55880Y29840
X55880Y27300
X55880Y23500
X55880Y20960
X55880Y18420
X55880Y15880
X55880Y13340
X55880Y10800
M30
