; Drill file
; Format: 3.3 (000.000)
M48
METRIC
T01C0.6
%
G05
G90
T01
X00Y29210
X00Y27940
X00Y26670
X00Y25400
X00Y24130
X00Y22860
X00Y21590
X00Y20320
X00Y19050
X00Y17780
X00Y16510
X00Y15240
X00Y13970
X00Y12700
X00Y11430
X00Y10160
X00Y8890
X00Y7620
X00Y6350
X00Y5080
X00Y3810
X00Y2540
X1270Y2540
X2540Y2540
X3810Y2540
X5080Y2540
X6350Y2540
X7620Y2540
X1270Y29210
X2540Y29210
X3810Y29210
X5080Y29210
X6350Y29210
X7620Y29210
X8890Y29210
X10160Y29210
X11430Y29210
X12700Y29210
X13970Y29210
X15240Y29210
X16510Y29210
X17780Y29210
X19050Y29210
X20320Y29210
X21590Y29210
X22860Y29210
X24130Y29210
X24130Y27940
X24130Y26670
X24130Y25400
X24130Y24130
X24130Y22860
X24130Y21590
X24130Y20320
X24130Y19050
X24130Y17780
X24130Y16510
X24130Y15240
X24130Y13970
X24130Y12700
X24130Y11430
X24130Y10160
X24130Y8890
X24130Y7620
X24130Y6350
X24130Y5080
X24130Y3810
X24130Y2540
X22860Y2540
X21590Y2540
X20320Y2540
X19050Y2540
X17780Y2540
X16510Y2540
X15240Y2540
X13970Y2540
X12700Y2540
X11430Y2540
X10160Y2540
X8890Y2540
M30
